{"accessors":[{"bufferView":0,"byteOffset":0,"componentType":5126,"count":744,"max":[0.0500000007450581,0.433922857046127,0.0500000007450581],"min":[-0.0500000007450581,-0.5,-0.0500000007450581],"normalized":false,"type":"VEC3"},{"bufferView":1,"byteOffset":0,"componentType":5126,"count":744,"max":[1.0,0.275246322154999,1.0,1.0],"min":[-1.0,-0.203573629260063,-1.0,1.0],"normalized":false,"type":"VEC4"},{"bufferView":2,"byteOffset":0,"componentType":5126,"count":744,"max":[0.999982297420502,0.0882988646626472,0.999982178211212],"min":[-0.999982476234436,-1.0,-0.999982476234436],"normalized":false,"type":"VEC3"},{"bufferView":3,"byteOffset":0,"componentType":5126,"count":744,"max":[1.0,1.0],"min":[0.0,0.0330385789275169],"normalized":false,"type":"VEC2"},{"bufferView":4,"byteOffset":0,"componentType":5123,"count":744,"max":[743.0],"min":[0.0],"normalized":false,"type":"SCALAR"},{"bufferView":5,"byteOffset":0,"componentType":5126,"count":156,"max":[0.0949999988079071,0.604859709739685,0.148679226636887],"min":[-0.0949999988079071,0.411952257156372,-0.153153717517853],"normalized":false,"type":"VEC3"},{"bufferView":6,"byteOffset":0,"componentType":5126,"count":156,"max":[1.0,0.990555763244629,0.278600364923477,1.0],"min":[-0.99060583114624,-0.990557432174683,-0.256682634353638,1.0],"normalized":false,"type":"VEC4"},{"bufferView":7,"byteOffset":0,"componentType":5126,"count":156,"max":[0.990600526332855,0.990555822849274,0.999953031539917],"min":[-0.990605115890503,-0.979179084300995,-0.999952912330627],"normalized":false,"type":"VEC3"},{"bufferView":8,"byteOffset":0,"componentType":5126,"count":156,"max":[1.0,1.0],"min":[0.0,0.0],"normalized":false,"type":"VEC2"},{"bufferView":9,"byteOffset":0,"componentType":5123,"count":156,"max":[155.0],"min":[0.0],"normalized":false,"type":"SCALAR"}],"asset":{"generator":"Godot Engine v4.4.stable.steam@4c311cbee68c0b66ff8ebb8b0defdd9979dd2a41","version":"2.0"},"bufferViews":[{"buffer":0,"byteLength":8928,"byteOffset":0,"byteStride":12,"target":34962},{"buffer":0,"byteLength":11904,"byteOffset":8928,"byteStride":16,"target":34962},{"buffer":0,"byteLength":8928,"byteOffset":20832,"byteStride":12,"target":34962},{"buffer":0,"byteLength":5952,"byteOffset":29760,"byteStride":8,"target":34962},{"buffer":0,"byteLength":1488,"byteOffset":35712,"target":34963},{"buffer":0,"byteLength":1872,"byteOffset":37200,"byteStride":12,"target":34962},{"buffer":0,"byteLength":2496,"byteOffset":39072,"byteStride":16,"target":34962},{"buffer":0,"byteLength":1872,"byteOffset":41568,"byteStride":12,"target":34962},{"buffer":0,"byteLength":1248,"byteOffset":43440,"byteStride":8,"target":34962},{"buffer":0,"byteLength":312,"byteOffset":44688,"target":34963}],"buffers":[{"byteLength":45000,"uri":"crowbar_model0.bin"}],"extensionsUsed":["GODOT_single_root"],"images":[{"uri":"textures%2F_albedo000.png"},{"uri":"textures%2F_albedo002.png"}],"materials":[{"extensions":{},"pbrMetallicRoughness":{"baseColorFactor":[1.0,1.0,1.0,1.0],"baseColorTexture":{"index":0},"metallicFactor":0.0,"roughnessFactor":1.0}},{"extensions":{},"pbrMetallicRoughness":{"baseColorFactor":[1.0,1.0,1.0,1.0],"baseColorTexture":{"index":1},"metallicFactor":1.0,"roughnessFactor":1.0}}],"meshes":[{"extras":{"targetNames":[]},"primitives":[{"attributes":{"NORMAL":2,"POSITION":0,"TANGENT":1,"TEXCOORD_0":3},"indices":4,"material":0,"mode":4},{"attributes":{"NORMAL":7,"POSITION":5,"TANGENT":6,"TEXCOORD_0":8},"indices":9,"material":1,"mode":4}]}],"nodes":[{"children":[1],"name":"model_crowbar"},{"children":[2],"mesh":0,"name":"mesh2"},{"name":"1","rotation":[0.703661322593689,0.0,0.0,0.710535526275635],"translation":[0.0,0.508405983448029,-0.00223724008537829]}],"samplers":[{"magFilter":9728,"minFilter":9728,"wrapS":10497,"wrapT":10497}],"scene":0,"scenes":[{"nodes":[0]}],"textures":[{"sampler":0,"source":0},{"sampler":0,"source":1}]}